<mxfile host="Electron" agent="Mozilla/5.0 (Windows NT 10.0; Win64; x64) AppleWebKit/537.36 (KHTML, like Gecko) draw.io/24.7.17 Chrome/128.0.6613.36 Electron/32.0.1 Safari/537.36" version="24.7.17">
  <diagram name="Страница — 1" id="9waQLTZleQEjqNxS_K__">
    <mxGraphModel dx="2205" dy="654" grid="1" gridSize="10" guides="1" tooltips="1" connect="1" arrows="1" fold="1" page="1" pageScale="1" pageWidth="1169" pageHeight="827" math="0" shadow="0">
      <root>
        <mxCell id="0" />
        <mxCell id="1" parent="0" />
        <mxCell id="T2A_9ODPvL2kQGdavJDN-5" value="" style="html=1;whiteSpace=wrap;fillColor=#d5e8d4;strokeColor=#82b366;" parent="1" vertex="1">
          <mxGeometry x="-610" y="70" width="920" height="606" as="geometry" />
        </mxCell>
        <mxCell id="fXuPGN3AKd3jT8xTEmgZ-9" value="app" style="html=1;whiteSpace=wrap;fillColor=#f5f5f5;fontColor=#333333;strokeColor=#666666;" vertex="1" parent="1">
          <mxGeometry x="1025" y="370" width="110" height="50" as="geometry" />
        </mxCell>
        <mxCell id="fXuPGN3AKd3jT8xTEmgZ-60" style="edgeStyle=orthogonalEdgeStyle;rounded=0;orthogonalLoop=1;jettySize=auto;html=1;entryX=0.5;entryY=1;entryDx=0;entryDy=0;" edge="1" parent="1" source="fXuPGN3AKd3jT8xTEmgZ-12" target="fXuPGN3AKd3jT8xTEmgZ-9">
          <mxGeometry relative="1" as="geometry" />
        </mxCell>
        <mxCell id="fXuPGN3AKd3jT8xTEmgZ-12" value="" style="html=1;whiteSpace=wrap;fillColor=#f5f5f5;strokeColor=#666666;fontColor=#333333;" vertex="1" parent="1">
          <mxGeometry x="950" y="580" width="260" height="340" as="geometry" />
        </mxCell>
        <mxCell id="fXuPGN3AKd3jT8xTEmgZ-22" style="edgeStyle=orthogonalEdgeStyle;rounded=0;orthogonalLoop=1;jettySize=auto;html=1;entryX=0;entryY=0.5;entryDx=0;entryDy=0;" edge="1" parent="1" source="fXuPGN3AKd3jT8xTEmgZ-13" target="fXuPGN3AKd3jT8xTEmgZ-14">
          <mxGeometry relative="1" as="geometry" />
        </mxCell>
        <mxCell id="fXuPGN3AKd3jT8xTEmgZ-13" value="feature:collections" style="html=1;whiteSpace=wrap;fillColor=#f5f5f5;fontColor=#333333;strokeColor=#666666;" vertex="1" parent="1">
          <mxGeometry x="960" y="590" width="110" height="50" as="geometry" />
        </mxCell>
        <mxCell id="fXuPGN3AKd3jT8xTEmgZ-23" style="edgeStyle=orthogonalEdgeStyle;rounded=0;orthogonalLoop=1;jettySize=auto;html=1;entryX=0.5;entryY=1;entryDx=0;entryDy=0;exitX=0;exitY=0.5;exitDx=0;exitDy=0;strokeColor=#000000;" edge="1" parent="1" source="fXuPGN3AKd3jT8xTEmgZ-14" target="fXuPGN3AKd3jT8xTEmgZ-13">
          <mxGeometry relative="1" as="geometry" />
        </mxCell>
        <mxCell id="fXuPGN3AKd3jT8xTEmgZ-14" value="collections:presentation" style="html=1;whiteSpace=wrap;fillColor=#f5f5f5;strokeColor=#666666;fontColor=#333333;" vertex="1" parent="1">
          <mxGeometry x="1060" y="650" width="130" height="50" as="geometry" />
        </mxCell>
        <mxCell id="fXuPGN3AKd3jT8xTEmgZ-24" style="edgeStyle=orthogonalEdgeStyle;rounded=0;orthogonalLoop=1;jettySize=auto;html=1;strokeColor=#000000;entryX=0.5;entryY=1;entryDx=0;entryDy=0;" edge="1" parent="1" source="fXuPGN3AKd3jT8xTEmgZ-15" target="fXuPGN3AKd3jT8xTEmgZ-13">
          <mxGeometry relative="1" as="geometry">
            <mxPoint x="1020" y="670" as="targetPoint" />
            <Array as="points">
              <mxPoint x="1015" y="765" />
            </Array>
          </mxGeometry>
        </mxCell>
        <mxCell id="fXuPGN3AKd3jT8xTEmgZ-15" value="collections:domain" style="html=1;whiteSpace=wrap;fillColor=#f5f5f5;strokeColor=#666666;fontColor=#333333;" vertex="1" parent="1">
          <mxGeometry x="1060" y="740" width="130" height="50" as="geometry" />
        </mxCell>
        <mxCell id="fXuPGN3AKd3jT8xTEmgZ-25" style="edgeStyle=orthogonalEdgeStyle;rounded=0;orthogonalLoop=1;jettySize=auto;html=1;entryX=0.5;entryY=1;entryDx=0;entryDy=0;strokeColor=#000000;" edge="1" parent="1" source="fXuPGN3AKd3jT8xTEmgZ-16" target="fXuPGN3AKd3jT8xTEmgZ-13">
          <mxGeometry relative="1" as="geometry">
            <Array as="points">
              <mxPoint x="1015" y="852" />
            </Array>
          </mxGeometry>
        </mxCell>
        <mxCell id="fXuPGN3AKd3jT8xTEmgZ-16" value="collections&lt;span style=&quot;background-color: initial;&quot;&gt;:data&lt;/span&gt;" style="html=1;whiteSpace=wrap;fillColor=#f5f5f5;strokeColor=#666666;fontColor=#333333;" vertex="1" parent="1">
          <mxGeometry x="1060" y="827" width="130" height="50" as="geometry" />
        </mxCell>
        <mxCell id="fXuPGN3AKd3jT8xTEmgZ-30" value="" style="endArrow=classic;html=1;rounded=0;strokeColor=#000000;exitX=0.5;exitY=1;exitDx=0;exitDy=0;" edge="1" parent="1" source="fXuPGN3AKd3jT8xTEmgZ-15" target="fXuPGN3AKd3jT8xTEmgZ-16">
          <mxGeometry width="50" height="50" relative="1" as="geometry">
            <mxPoint x="1050" y="820" as="sourcePoint" />
            <mxPoint x="1100" y="770" as="targetPoint" />
          </mxGeometry>
        </mxCell>
        <mxCell id="fXuPGN3AKd3jT8xTEmgZ-31" value="" style="endArrow=classic;html=1;rounded=0;strokeColor=#000000;exitX=0.5;exitY=0;exitDx=0;exitDy=0;entryX=0.5;entryY=1;entryDx=0;entryDy=0;" edge="1" parent="1" source="fXuPGN3AKd3jT8xTEmgZ-15" target="fXuPGN3AKd3jT8xTEmgZ-14">
          <mxGeometry width="50" height="50" relative="1" as="geometry">
            <mxPoint x="1135" y="800" as="sourcePoint" />
            <mxPoint x="1135" y="837" as="targetPoint" />
          </mxGeometry>
        </mxCell>
        <mxCell id="fXuPGN3AKd3jT8xTEmgZ-56" style="edgeStyle=orthogonalEdgeStyle;rounded=0;orthogonalLoop=1;jettySize=auto;html=1;entryX=0.5;entryY=1;entryDx=0;entryDy=0;" edge="1" parent="1" source="fXuPGN3AKd3jT8xTEmgZ-34" target="fXuPGN3AKd3jT8xTEmgZ-9">
          <mxGeometry relative="1" as="geometry">
            <Array as="points">
              <mxPoint x="1370" y="540" />
              <mxPoint x="1080" y="540" />
            </Array>
          </mxGeometry>
        </mxCell>
        <mxCell id="fXuPGN3AKd3jT8xTEmgZ-34" value="" style="html=1;whiteSpace=wrap;fillColor=#f5f5f5;strokeColor=#666666;fontColor=#333333;" vertex="1" parent="1">
          <mxGeometry x="1240" y="580" width="260" height="340" as="geometry" />
        </mxCell>
        <mxCell id="fXuPGN3AKd3jT8xTEmgZ-35" style="edgeStyle=orthogonalEdgeStyle;rounded=0;orthogonalLoop=1;jettySize=auto;html=1;entryX=0;entryY=0.5;entryDx=0;entryDy=0;" edge="1" parent="1" source="fXuPGN3AKd3jT8xTEmgZ-36" target="fXuPGN3AKd3jT8xTEmgZ-38">
          <mxGeometry relative="1" as="geometry" />
        </mxCell>
        <mxCell id="fXuPGN3AKd3jT8xTEmgZ-36" value="feature:camera" style="html=1;whiteSpace=wrap;fillColor=#f5f5f5;fontColor=#333333;strokeColor=#666666;" vertex="1" parent="1">
          <mxGeometry x="1250" y="590" width="110" height="50" as="geometry" />
        </mxCell>
        <mxCell id="fXuPGN3AKd3jT8xTEmgZ-37" style="edgeStyle=orthogonalEdgeStyle;rounded=0;orthogonalLoop=1;jettySize=auto;html=1;entryX=0.5;entryY=1;entryDx=0;entryDy=0;exitX=0;exitY=0.5;exitDx=0;exitDy=0;strokeColor=#000000;" edge="1" parent="1" source="fXuPGN3AKd3jT8xTEmgZ-38" target="fXuPGN3AKd3jT8xTEmgZ-36">
          <mxGeometry relative="1" as="geometry" />
        </mxCell>
        <mxCell id="fXuPGN3AKd3jT8xTEmgZ-38" value="camera:presentation" style="html=1;whiteSpace=wrap;fillColor=#f5f5f5;strokeColor=#666666;fontColor=#333333;" vertex="1" parent="1">
          <mxGeometry x="1350" y="650" width="130" height="50" as="geometry" />
        </mxCell>
        <mxCell id="fXuPGN3AKd3jT8xTEmgZ-39" style="edgeStyle=orthogonalEdgeStyle;rounded=0;orthogonalLoop=1;jettySize=auto;html=1;strokeColor=#000000;entryX=0.5;entryY=1;entryDx=0;entryDy=0;" edge="1" parent="1" source="fXuPGN3AKd3jT8xTEmgZ-40" target="fXuPGN3AKd3jT8xTEmgZ-36">
          <mxGeometry relative="1" as="geometry">
            <mxPoint x="1310" y="670" as="targetPoint" />
            <Array as="points">
              <mxPoint x="1305" y="765" />
            </Array>
          </mxGeometry>
        </mxCell>
        <mxCell id="fXuPGN3AKd3jT8xTEmgZ-40" value="camera:domain" style="html=1;whiteSpace=wrap;fillColor=#f5f5f5;strokeColor=#666666;fontColor=#333333;" vertex="1" parent="1">
          <mxGeometry x="1350" y="740" width="130" height="50" as="geometry" />
        </mxCell>
        <mxCell id="fXuPGN3AKd3jT8xTEmgZ-41" style="edgeStyle=orthogonalEdgeStyle;rounded=0;orthogonalLoop=1;jettySize=auto;html=1;entryX=0.5;entryY=1;entryDx=0;entryDy=0;strokeColor=#000000;" edge="1" parent="1" source="fXuPGN3AKd3jT8xTEmgZ-42" target="fXuPGN3AKd3jT8xTEmgZ-36">
          <mxGeometry relative="1" as="geometry">
            <Array as="points">
              <mxPoint x="1305" y="852" />
            </Array>
          </mxGeometry>
        </mxCell>
        <mxCell id="fXuPGN3AKd3jT8xTEmgZ-42" value="camera&lt;span style=&quot;background-color: initial;&quot;&gt;:data&lt;/span&gt;" style="html=1;whiteSpace=wrap;fillColor=#f5f5f5;strokeColor=#666666;fontColor=#333333;" vertex="1" parent="1">
          <mxGeometry x="1350" y="827" width="130" height="50" as="geometry" />
        </mxCell>
        <mxCell id="fXuPGN3AKd3jT8xTEmgZ-43" value="" style="endArrow=classic;html=1;rounded=0;strokeColor=#000000;exitX=0.5;exitY=1;exitDx=0;exitDy=0;" edge="1" parent="1" source="fXuPGN3AKd3jT8xTEmgZ-40" target="fXuPGN3AKd3jT8xTEmgZ-42">
          <mxGeometry width="50" height="50" relative="1" as="geometry">
            <mxPoint x="1340" y="820" as="sourcePoint" />
            <mxPoint x="1390" y="770" as="targetPoint" />
          </mxGeometry>
        </mxCell>
        <mxCell id="fXuPGN3AKd3jT8xTEmgZ-44" value="" style="endArrow=classic;html=1;rounded=0;strokeColor=#000000;exitX=0.5;exitY=0;exitDx=0;exitDy=0;entryX=0.5;entryY=1;entryDx=0;entryDy=0;" edge="1" parent="1" source="fXuPGN3AKd3jT8xTEmgZ-40" target="fXuPGN3AKd3jT8xTEmgZ-38">
          <mxGeometry width="50" height="50" relative="1" as="geometry">
            <mxPoint x="1425" y="800" as="sourcePoint" />
            <mxPoint x="1425" y="837" as="targetPoint" />
          </mxGeometry>
        </mxCell>
        <mxCell id="fXuPGN3AKd3jT8xTEmgZ-58" style="edgeStyle=orthogonalEdgeStyle;rounded=0;orthogonalLoop=1;jettySize=auto;html=1;entryX=0;entryY=0.5;entryDx=0;entryDy=0;" edge="1" parent="1" target="fXuPGN3AKd3jT8xTEmgZ-9">
          <mxGeometry relative="1" as="geometry">
            <mxPoint x="720" y="429" as="sourcePoint" />
            <mxPoint x="1015" y="404" as="targetPoint" />
            <Array as="points">
              <mxPoint x="720" y="395" />
            </Array>
          </mxGeometry>
        </mxCell>
        <mxCell id="fXuPGN3AKd3jT8xTEmgZ-45" value="" style="html=1;whiteSpace=wrap;fillColor=#f5f5f5;strokeColor=#666666;fontColor=#333333;" vertex="1" parent="1">
          <mxGeometry x="600" y="420" width="260" height="340" as="geometry" />
        </mxCell>
        <mxCell id="fXuPGN3AKd3jT8xTEmgZ-46" style="edgeStyle=orthogonalEdgeStyle;rounded=0;orthogonalLoop=1;jettySize=auto;html=1;entryX=0;entryY=0.5;entryDx=0;entryDy=0;" edge="1" parent="1" source="fXuPGN3AKd3jT8xTEmgZ-47" target="fXuPGN3AKd3jT8xTEmgZ-49">
          <mxGeometry relative="1" as="geometry" />
        </mxCell>
        <mxCell id="fXuPGN3AKd3jT8xTEmgZ-47" value="core" style="html=1;whiteSpace=wrap;fillColor=#f5f5f5;fontColor=#333333;strokeColor=#666666;" vertex="1" parent="1">
          <mxGeometry x="610" y="430" width="110" height="50" as="geometry" />
        </mxCell>
        <mxCell id="fXuPGN3AKd3jT8xTEmgZ-48" style="edgeStyle=orthogonalEdgeStyle;rounded=0;orthogonalLoop=1;jettySize=auto;html=1;entryX=0.5;entryY=1;entryDx=0;entryDy=0;exitX=0;exitY=0.5;exitDx=0;exitDy=0;strokeColor=#000000;" edge="1" parent="1" source="fXuPGN3AKd3jT8xTEmgZ-49" target="fXuPGN3AKd3jT8xTEmgZ-47">
          <mxGeometry relative="1" as="geometry" />
        </mxCell>
        <mxCell id="fXuPGN3AKd3jT8xTEmgZ-49" value="utils" style="html=1;whiteSpace=wrap;fillColor=#f5f5f5;strokeColor=#666666;fontColor=#333333;" vertex="1" parent="1">
          <mxGeometry x="710" y="490" width="130" height="50" as="geometry" />
        </mxCell>
        <mxCell id="fXuPGN3AKd3jT8xTEmgZ-50" style="edgeStyle=orthogonalEdgeStyle;rounded=0;orthogonalLoop=1;jettySize=auto;html=1;strokeColor=#000000;entryX=0.5;entryY=1;entryDx=0;entryDy=0;" edge="1" parent="1" source="fXuPGN3AKd3jT8xTEmgZ-51" target="fXuPGN3AKd3jT8xTEmgZ-47">
          <mxGeometry relative="1" as="geometry">
            <mxPoint x="670" y="510" as="targetPoint" />
            <Array as="points">
              <mxPoint x="665" y="605" />
            </Array>
          </mxGeometry>
        </mxCell>
        <mxCell id="fXuPGN3AKd3jT8xTEmgZ-51" value="navigation" style="html=1;whiteSpace=wrap;fillColor=#f5f5f5;strokeColor=#666666;fontColor=#333333;" vertex="1" parent="1">
          <mxGeometry x="710" y="580" width="130" height="50" as="geometry" />
        </mxCell>
        <mxCell id="fXuPGN3AKd3jT8xTEmgZ-52" style="edgeStyle=orthogonalEdgeStyle;rounded=0;orthogonalLoop=1;jettySize=auto;html=1;entryX=0.5;entryY=1;entryDx=0;entryDy=0;strokeColor=#000000;" edge="1" parent="1" source="fXuPGN3AKd3jT8xTEmgZ-53" target="fXuPGN3AKd3jT8xTEmgZ-47">
          <mxGeometry relative="1" as="geometry">
            <Array as="points">
              <mxPoint x="665" y="692" />
            </Array>
          </mxGeometry>
        </mxCell>
        <mxCell id="fXuPGN3AKd3jT8xTEmgZ-53" value="dependency injection" style="html=1;whiteSpace=wrap;fillColor=#f5f5f5;strokeColor=#666666;fontColor=#333333;" vertex="1" parent="1">
          <mxGeometry x="710" y="667" width="130" height="50" as="geometry" />
        </mxCell>
      </root>
    </mxGraphModel>
  </diagram>
</mxfile>
